# xmcd CD database file
#
# Track frame offsets:
#	150
#	35085
#	54817
#	76864
#	101093
#	120378
#	139707
#	157689
#	187299
#	213211
#	247875
#	263390
#
# Disc length: 3712 seconds
#
# Revision: 0
# Processed by: cddbd v1.5.1PL0 Copyright (c) Steve Scherf et al.
# Submitted via: CDex 1.51
#
DISCID=900e7e0c
DTITLE=Ali Hassan Kuban - Walk Like  A Nubian
DYEAR=1994
DGENRE=world
TTITLE0=Om Schar Asmar Me Daffar
TTITLE1=Habibi
TTITLE2=Al Ghazal
TTITLE3=Ya Waladi
TTITLE4=Werwek Moshkoburungo
TTITLE5=Gure Na Imi
TTITLE6=Henna
TTITLE7=YoYo Kilili, Annissa Kilili
TTITLE8=Artasu Nartasu
TTITLE9=Bettitogor Agil
TTITLE10=Tamin Qalbak Ya Habibi
TTITLE11=Ya Nubiyyah
EXTD=YEAR: 1994
EXTT0=
EXTT1=
EXTT2=
EXTT3=
EXTT4=
EXTT5=
EXTT6=
EXTT7=
EXTT8=
EXTT9=
EXTT10=
EXTT11=
PLAYORDER=
